<?xml version="1.0" encoding="UTF-8" standalone="no"?>
<!-- Created with Inkscape (http://www.inkscape.org/) -->
<svg
   xmlns:svg="http://www.w3.org/2000/svg"
   xmlns="http://www.w3.org/2000/svg"
   version="1.0"
   width="50"
   height="50"
   id="svg2">
  <defs
     id="defs4" />
  <g
     id="layer1">
    <path
       d="M 28.426051,49.645715 C 34.374278,48.131231 39.614687,43.761112 41.601636,37.874623 C 42.872138,35.085785 42.927618,31.923445 42.024815,29.023888 C 41.215677,25.377714 39.249077,22.161096 36.933335,19.27695 C 34.010891,14.705203 33.828035,7.1224587 37.890019,4.1416645 C 40.863291,1.9191797 43.858755,4.4472192 44.279246,6.7721478 C 45.295549,10.274276 42.474366,15.152893 38.536093,15.152668 C 37.308151,14.819997 35.978316,14.67837 37.772828,15.86103 C 40.234617,17.544159 43.798576,17.264484 46.231864,15.64125 C 48.539976,14.081019 49.463013,11.097455 48.779951,8.4463075 C 48.297686,5.2853919 45.917463,2.6585656 42.880991,1.7222054 C 39.891844,0.57333337 36.26065,0.73685376 33.687761,2.6345445 C 29.88245,4.7053491 28.525496,9.6909762 29.1084,13.864554 C 29.83389,16.985105 30.640251,19.71623 32.540125,23.131806 C 35.727937,27.935627 37.987578,34.906034 35.185078,40.047052 C 33.536223,43.488671 29.380025,46.506436 24.990483,46.557567 C 21.120352,47.008897 17.636268,44.710312 15.40902,41.952168 C 13.453535,39.514795 12.347352,35.778742 12.581775,32.535529 C 12.727114,27.785239 15.490404,23.047917 17.852476,19.44258 C 19.152608,16.895036 19.371508,14.865542 19.468155,11.978863 C 19.157668,8.1036966 18.605701,4.4039081 15.10448,2.5396946 C 10.591391,-0.081196449 3.7954892,1.1870408 1.4350682,6.1123689 C -0.28735991,9.5850101 0.63210137,14.657745 4.4735997,16.264512 C 7.1499069,17.748615 10.814348,17.150179 12.829358,14.830096 C 10.38136,14.768175 7.1236214,15.051291 6.0519363,12.224215 C 4.567094,9.2937151 4.6470363,4.7015906 8.0205219,3.1208662 C 10.828082,1.9339621 13.757531,4.5178201 14.312407,7.2141606 C 15.093404,10.918257 14.994856,15.015283 13.115641,18.392825 C 11.636221,21.075846 9.2746293,23.207544 8.2114912,26.142073 C 5.8426952,31.464385 6.9186793,37.836343 10.36486,42.436932 C 13.591438,47.146289 19.197438,49.986541 24.895697,49.846741 C 26.075293,49.85965 27.255012,49.785723 28.426051,49.645715 z "
       style="fill:#000000;fill-opacity:1;stroke:none;stroke-width:1px;stroke-linecap:butt;stroke-linejoin:miter;stroke-opacity:1"
       id="text2160" />
  </g>
</svg>
